<?xml version="1.0" standalone="no"?>
<!DOCTYPE svg PUBLIC "-//W3C//DTD SVG 20010904//EN" "http://www.w3.org/TR/2001/REC-SVG-20010904/DTD/svg10.dtd">
<svg version="1.0" xmlns="http://www.w3.org/2000/svg"
     width="40" height="40" viewBox="0 0 124 128"
     style="transform: scale(1.4);"
     preserveAspectRatio="xMidYMid meet">

    <g transform="translate(0,128) scale(0.1,-0.1)" filter="zoom(2x)" fill="#C75450" stroke="none">
        <path d="M717 1056 c-59 -22 -117 -63 -187 -136 -77 -79 -99 -114 -84 -138 13
-20 102 -82 119 -82 6 0 29 38 50 85 47 107 86 169 119 191 36 23 79 5 102
-44 49 -104 -8 -360 -88 -393 -53 -22 -144 19 -274 122 -34 27 -66 49 -71 49
-5 0 -3 -38 5 -87 15 -101 10 -275 -12 -368 -8 -33 -13 -61 -11 -63 2 -2 36
62 75 142 l73 145 40 -26 c69 -44 140 -73 177 -73 53 0 110 38 137 90 28 56
53 224 53 356 0 83 -4 107 -24 149 -13 28 -36 59 -51 69 -37 25 -101 30 -148
12z"/>
    </g>
</svg>
